<svg xmlns="http://www.w3.org/2000/svg" x="0px" y="0px" xmlns:xlink="http://www.w3.org/1999/xlink" viewBox="0 0 192 192"><defs><ellipse id="a" cx="17.398" cy="17.34" rx="17.398" ry="17.34"></ellipse><linearGradient x1="30.41%" y1="26.181%" x2="87.592%" y2="86.514%" id="b"><stop stop-color="#262626" stop-opacity=".2" offset="0%"></stop><stop stop-color="#262626" stop-opacity=".02" offset="100%"></stop></linearGradient><radialGradient cx="22.727%" cy="13.068%" fx="22.727%" fy="13.068%" r="379.282%" gradientTransform="scale(.99664 1)" id="d"><stop stop-color="#FFF" stop-opacity=".1" offset="0%"></stop><stop stop-color="#FFF" stop-opacity="0" offset="100%"></stop></radialGradient></defs><g fill="none" fill-rule="evenodd"><path d="M-1-1h38v38H-1z"></path><g transform="translate(.582 .583)"><mask id="c" fill="#fff"><use xlink:href="#a"></use></mask><use fill="#2A56C6" fill-rule="nonzero" xlink:href="#a"></use><path fill="url(#b)" fill-rule="nonzero" mask="url(#c)" d="M18.782 34.68L8.304 24.236 25.9 9.656l8.897 9.063v15.96"></path><g fill-opacity=".2" fill-rule="nonzero"><path d="M17.398.177c9.57 0 17.34 7.724 17.4 17.26v-.097c0-9.576-7.79-17.34-17.4-17.34C7.79 0 0 7.764 0 17.34v.098C.06 7.9 7.81.178 17.398.178z" fill="#FFF"></path><path d="M17.398 34.502c9.57 0 17.34-7.724 17.4-17.26v.098c0 9.576-7.79 17.34-17.4 17.34C7.79 34.68 0 26.916 0 17.34v-.1c.06 9.538 7.81 17.262 17.398 17.262z" fill="#263238"></path></g><path d="M22.934 8.67H5.16c-.632 0-1.028.71-.672 1.24l2.63 4.06v7.31c0 2.602 2.135 4.73 4.744 4.73h11.072c2.61 0 4.745-2.128 4.745-4.73V13.4c0-2.602-2.14-4.73-4.75-4.73z" fill="#F1F1F1" fill-rule="nonzero"></path><path d="M7.117 13.97l-2.63-4.06c-.078-.097-.118-.215-.118-.334-.02.178.02.375.11.532l2.63 4.06v-.198zm15.817 12.04H11.862c-2.61 0-4.745-2.128-4.745-4.73v.198c0 2.6 2.136 4.73 4.745 4.73h11.072c2.61 0 4.745-2.13 4.745-4.73v-.197c0 2.61-2.14 4.73-4.75 4.73z" opacity=".1" fill-rule="nonzero" fill="#000"></path><path d="M22.934 8.67H5.16c-.514 0-.87.453-.81.906.06-.374.375-.71.81-.71h17.774c2.61 0 4.745 2.13 4.745 4.73V13.4c0-2.602-2.14-4.73-4.75-4.73z" fill="#FFF" fill-rule="nonzero" opacity=".2"></path><path d="M23.725 17.34c0 .65-.534 1.182-1.186 1.182H12.25c-.653 0-1.186-.532-1.186-1.182 0-.65.533-1.182 1.186-1.182h10.28c.653 0 1.187.532 1.187 1.182zm-4.745 3.94c0 .65-.534 1.183-1.186 1.183h-5.536c-.653 0-1.186-.532-1.186-1.182 0-.65.533-1.18 1.186-1.18h5.536c.652 0 1.186.53 1.186 1.18zm4.745-7.88c0 .65-.534 1.18-1.186 1.18H12.25c-.653 0-1.186-.53-1.186-1.18 0-.65.533-1.183 1.186-1.183h10.28c.653 0 1.187.532 1.187 1.182z" fill="#BDBDBD" fill-rule="nonzero"></path><ellipse fill="url(#d)" fill-rule="nonzero" cx="17.398" cy="17.34" rx="17.398" ry="17.34"></ellipse></g></g></svg>
