<svg width="99" height="99" xmlns="http://www.w3.org/2000/svg" xmlns:xlink="http://www.w3.org/1999/xlink"><defs><ellipse id="a" cx="17.398" cy="17.34" rx="17.398" ry="17.34"/><linearGradient id="b" x1="30.41%" y1="26.181%" x2="87.592%" y2="86.514%"><stop stop-color="#262626" stop-opacity="0.2" offset="0%"/><stop stop-color="#262626" stop-opacity="0.02" offset="100%"/></linearGradient><radialGradient id="d" cx="22.727%" cy="13.068%" fx="22.727%" fy="13.068%" r="379.282%" gradientTransform="scale(.99664 1)"><stop stop-color="#FFF" stop-opacity="0.1" offset="0%"/><stop stop-color="#FFF" stop-opacity="0" offset="100%"/></radialGradient></defs><g><rect width="99" height="99" fill="none" id="svg_1"/><g fill="none" fill-rule="evenodd" id="svg_2"><use x="0" y="0" stroke="null" transform="matrix(2.8440756797790527,0,0,2.8440756797790527,0,0) " fill="#2A56C6" fill-rule="nonzero" xlink:href="#a" id="svg_3"/><g stroke="null" transform="scale(2.799999952316284) " id="svg_4"><path stroke="null" fill="url(#b)" fill-rule="nonzero" mask="url(#c)" d="m19.006893,35.095253l-10.603462,-10.569055l17.806692,-14.754579l9.003531,9.171519l0,16.151103" id="svg_5"/><g stroke="null" fill-opacity="0.2" fill-rule="nonzero" id="svg_6"><path stroke="null" d="m17.606321,0.179119c9.68459,0 17.547627,7.816486 17.608345,17.466669l0,-0.098161c0,-9.690662 -7.883276,-17.547627 -17.608345,-17.547627c-9.723045,0 -17.606321,7.856965 -17.606321,17.547627l0,0.099173c0.060718,-9.652207 7.903516,-17.466669 17.606321,-17.466669l0,-0.001012z" fill="#FFF" id="svg_7"/><path stroke="null" d="m17.606321,34.915122c9.68459,0 17.547627,-7.816486 17.608345,-17.466669l0,0.099173c0,9.690662 -7.883276,17.547627 -17.608345,17.547627c-9.723045,0 -17.606321,-7.856965 -17.606321,-17.547627l0,-0.101197c0.060718,9.652207 7.903516,17.468693 17.606321,17.468693z" fill="#263238" id="svg_8"/></g><path stroke="null" d="m23.208608,8.773813l-17.986823,0c-0.639567,0 -1.040309,0.718501 -0.680046,1.254848l2.661491,4.108614l0,7.397529c0,2.633156 2.160564,4.786636 4.800804,4.786636l11.204575,0c2.641252,0 4.801816,-2.15348 4.801816,-4.786636l0,-7.974354c0,-2.633156 -2.165624,-4.786636 -4.806876,-4.786636l0.00506,0z" fill="#F1F1F1" fill-rule="nonzero" id="svg_9"/><path stroke="null" d="m7.202218,14.137275l-2.661491,-4.108614c-0.078934,-0.098161 -0.119413,-0.217574 -0.119413,-0.337999c-0.020239,0.180131 0.020239,0.37949 0.111317,0.53837l2.661491,4.108614l0,-0.200371l0.008096,0zm15.998295,12.184165l-11.196479,0c-2.641252,0 -4.801816,-2.15348 -4.801816,-4.786636l0,0.200371c0,2.631132 2.161576,4.786636 4.801816,4.786636l11.204575,0c2.641252,0 4.801816,-2.155504 4.801816,-4.786636l0,-0.199359c0,2.641252 -2.165624,4.786636 -4.806876,4.786636l-0.003036,-0.001012z" opacity="0.1" fill-rule="nonzero" fill="#000" id="svg_10"/><path stroke="null" d="m23.208608,8.773813l-17.986823,0c-0.520155,0 -0.880417,0.458424 -0.819699,0.916848c0.060718,-0.378478 0.37949,-0.718501 0.819699,-0.718501l17.986823,0c2.641252,0 4.801816,2.155504 4.801816,4.786636l0,-0.198347c0,-2.633156 -2.165624,-4.786636 -4.806876,-4.786636l0.00506,0z" fill="#FFF" fill-rule="nonzero" opacity="0.2" id="svg_11"/><path stroke="null" d="m24.00908,17.547627c0,0.657783 -0.540394,1.196153 -1.200201,1.196153l-10.412199,0c-0.660819,0 -1.200201,-0.53837 -1.200201,-1.196153c0,-0.657783 0.539382,-1.196153 1.200201,-1.196153l10.403091,0c0.660819,0 1.201213,0.53837 1.201213,1.196153l0.008096,0zm-4.809912,3.987177c0,0.657783 -0.540394,1.197165 -1.200201,1.197165l-5.602287,0c-0.660819,0 -1.200201,-0.53837 -1.200201,-1.196153c0,-0.657783 0.539382,-1.194129 1.200201,-1.194129l5.602287,0c0.659807,0 1.200201,0.536346 1.200201,1.194129l0,-0.001012zm4.801816,-7.974354c0,0.657783 -0.540394,1.194129 -1.200201,1.194129l-10.404103,0c-0.660819,0 -1.200201,-0.536346 -1.200201,-1.194129c0,-0.657783 0.539382,-1.197165 1.200201,-1.197165l10.403091,0c0.660819,0 1.201213,0.53837 1.201213,1.196153l0,0.001012z" fill="#BDBDBD" fill-rule="nonzero" id="svg_12"/><ellipse stroke="null" fill="url(#d)" fill-rule="nonzero" cx="17.606321" cy="17.547627" rx="17.606321" ry="17.547627" id="svg_13"/></g></g></g></svg>
